<?xml version="1.0" encoding="UTF-8"?>
<!DOCTYPE svg PUBLIC "-//W3C//DTD SVG 1.1//EN" "http://www.w3.org/Graphics/SVG/1.1/DTD/svg11.dtd">
<svg version="1.2" width="20mm" height="100mm" viewBox="0 0 2000 10000" preserveAspectRatio="xMidYMid" fill-rule="evenodd" stroke-width="28.222" stroke-linejoin="round" xmlns="http://www.w3.org/2000/svg" xmlns:ooo="http://xml.openoffice.org/svg/export" xmlns:xlink="http://www.w3.org/1999/xlink" xmlns:presentation="http://sun.com/xmlns/staroffice/presentation" xmlns:smil="http://www.w3.org/2001/SMIL20/" xmlns:anim="urn:oasis:names:tc:opendocument:xmlns:animation:1.0" xml:space="preserve">
 <defs class="ClipPathGroup">
  <clipPath id="presentation_clip_path" clipPathUnits="userSpaceOnUse">
   <rect x="0" y="0" width="2000" height="10000"/>
  </clipPath>
  <clipPath id="presentation_clip_path_shrink" clipPathUnits="userSpaceOnUse">
   <rect x="2" y="10" width="1996" height="9980"/>
  </clipPath>
 </defs>
 <defs class="TextShapeIndex">
  <g ooo:slide="id1" ooo:id-list="id3 id4 id5 id6"/>
 </defs>
 <defs class="EmbeddedBulletChars">
  <g id="bullet-char-template-57356" transform="scale(0.00048828125,-0.00048828125)">
   <path d="M 580,1141 L 1163,571 580,0 -4,571 580,1141 Z"/>
  </g>
  <g id="bullet-char-template-57354" transform="scale(0.00048828125,-0.00048828125)">
   <path d="M 8,1128 L 1137,1128 1137,0 8,0 8,1128 Z"/>
  </g>
  <g id="bullet-char-template-10146" transform="scale(0.00048828125,-0.00048828125)">
   <path d="M 174,0 L 602,739 174,1481 1456,739 174,0 Z M 1358,739 L 309,1346 659,739 1358,739 Z"/>
  </g>
  <g id="bullet-char-template-10132" transform="scale(0.00048828125,-0.00048828125)">
   <path d="M 2015,739 L 1276,0 717,0 1260,543 174,543 174,936 1260,936 717,1481 1274,1481 2015,739 Z"/>
  </g>
  <g id="bullet-char-template-10007" transform="scale(0.00048828125,-0.00048828125)">
   <path d="M 0,-2 C -7,14 -16,27 -25,37 L 356,567 C 262,823 215,952 215,954 215,979 228,992 255,992 264,992 276,990 289,987 310,991 331,999 354,1012 L 381,999 492,748 772,1049 836,1024 860,1049 C 881,1039 901,1025 922,1006 886,937 835,863 770,784 769,783 710,716 594,584 L 774,223 C 774,196 753,168 711,139 L 727,119 C 717,90 699,76 672,76 641,76 570,178 457,381 L 164,-76 C 142,-110 111,-127 72,-127 30,-127 9,-110 8,-76 1,-67 -2,-52 -2,-32 -2,-23 -1,-13 0,-2 Z"/>
  </g>
  <g id="bullet-char-template-10004" transform="scale(0.00048828125,-0.00048828125)">
   <path d="M 285,-33 C 182,-33 111,30 74,156 52,228 41,333 41,471 41,549 55,616 82,672 116,743 169,778 240,778 293,778 328,747 346,684 L 369,508 C 377,444 397,411 428,410 L 1163,1116 C 1174,1127 1196,1133 1229,1133 1271,1133 1292,1118 1292,1087 L 1292,965 C 1292,929 1282,901 1262,881 L 442,47 C 390,-6 338,-33 285,-33 Z"/>
  </g>
  <g id="bullet-char-template-9679" transform="scale(0.00048828125,-0.00048828125)">
   <path d="M 813,0 C 632,0 489,54 383,161 276,268 223,411 223,592 223,773 276,916 383,1023 489,1130 632,1184 813,1184 992,1184 1136,1130 1245,1023 1353,916 1407,772 1407,592 1407,412 1353,268 1245,161 1136,54 992,0 813,0 Z"/>
  </g>
  <g id="bullet-char-template-8226" transform="scale(0.00048828125,-0.00048828125)">
   <path d="M 346,457 C 273,457 209,483 155,535 101,586 74,649 74,723 74,796 101,859 155,911 209,963 273,989 346,989 419,989 480,963 531,910 582,859 608,796 608,723 608,648 583,586 532,535 482,483 420,457 346,457 Z"/>
  </g>
  <g id="bullet-char-template-8211" transform="scale(0.00048828125,-0.00048828125)">
   <path d="M -4,459 L 1135,459 1135,606 -4,606 -4,459 Z"/>
  </g>
  <g id="bullet-char-template-61548" transform="scale(0.00048828125,-0.00048828125)">
   <path d="M 173,740 C 173,903 231,1043 346,1159 462,1274 601,1332 765,1332 928,1332 1067,1274 1183,1159 1299,1043 1357,903 1357,740 1357,577 1299,437 1183,322 1067,206 928,148 765,148 601,148 462,206 346,322 231,437 173,577 173,740 Z"/>
  </g>
 </defs>
 <g>
  <g id="id2" class="Master_Slide">
   <g id="bg-id2" class="Background"/>
   <g id="bo-id2" class="BackgroundObjects"/>
  </g>
 </g>
 <g class="SlideGroup">
  <g>
   <g id="container-id1">
    <g id="id1" class="Slide" clip-path="url(#presentation_clip_path)">
     <g class="Page">
      <g class="Group">
       <g class="com.sun.star.drawing.CustomShape">
        <g id="id3">
         <rect class="BoundingBox" stroke="none" fill="none" x="0" y="0" width="2001" height="10001"/>
         <path fill="rgb(0,96,223)" stroke="none" d="M 1000,10000 L 0,10000 0,0 2000,0 2000,10000 1000,10000 Z"/>
        </g>
       </g>
       <g class="com.sun.star.drawing.CustomShape">
        <g id="id4">
         <rect class="BoundingBox" stroke="none" fill="none" x="54" y="3540" width="1893" height="4781"/>
         <path fill="rgb(237,237,240)" stroke="none" d="M 1000,8320 L 54,8320 54,3540 1946,3540 1946,8320 1000,8320 Z"/>
        </g>
       </g>
       <g class="Group">
        <g class="Graphic">
         <g id="id5">
          <rect class="BoundingBox" stroke="none" fill="none" x="300" y="90" width="1402" height="1621"/>
          <path fill="rgb(12,12,13)" fill-opacity="0.8" stroke="rgb(255,255,255)" stroke-opacity="0.8" d="M 1371,1173 C 1365,1169 1359,1164 1354,1158 L 1001,749 647,1158 C 642,1163 636,1168 631,1172 618,1180 604,1185 589,1185 575,1185 561,1180 548,1172 536,1164 525,1152 518,1137 511,1123 507,1106 507,1089 507,1073 511,1056 518,1042 521,1035 526,1029 530,1023 L 942,547 C 947,541 953,536 959,532 972,523 986,519 1000,519 1015,519 1029,523 1042,532 1048,536 1054,541 1059,547 L 1471,1023 C 1476,1029 1480,1036 1484,1043 1491,1057 1495,1074 1495,1091 1495,1107 1491,1124 1484,1138 1477,1153 1466,1165 1454,1173 1441,1181 1427,1186 1413,1186 1398,1186 1384,1181 1371,1173 Z"/>
         </g>
        </g>
        <g class="Graphic">
         <g id="id6">
          <rect class="BoundingBox" stroke="none" fill="none" x="299" y="8290" width="1403" height="1621"/>
          <path fill="rgb(12,12,13)" fill-opacity="0.8" stroke="rgb(255,255,255)" stroke-opacity="0.8" d="M 1371,8827 C 1365,8831 1359,8836 1354,8842 L 1000,9251 647,8842 C 642,8837 636,8832 631,8828 618,8820 604,8815 589,8815 575,8815 561,8820 548,8828 536,8836 525,8848 518,8863 511,8877 507,8894 507,8911 507,8927 511,8944 518,8958 521,8965 526,8971 530,8977 L 942,9453 C 947,9459 953,9464 959,9468 972,9477 986,9481 1000,9481 1015,9481 1029,9477 1042,9468 1048,9464 1054,9459 1059,9453 L 1471,8977 C 1476,8971 1480,8964 1484,8957 1491,8943 1495,8926 1495,8909 1495,8893 1491,8876 1484,8862 1477,8847 1466,8835 1454,8827 1441,8819 1427,8814 1413,8814 1398,8814 1384,8819 1371,8827 Z"/>
         </g>
        </g>
       </g>
      </g>
     </g>
    </g>
   </g>
  </g>
 </g>
</svg>